<?xml version="1.0" encoding="UTF-8"?> <svg xmlns="http://www.w3.org/2000/svg" xmlns:xlink="http://www.w3.org/1999/xlink" id="Layer_1" data-name="Layer 1" viewBox="0 0 500 428"><defs><style> .cls-1 { fill: url(#linear-gradient); stroke-width: 0px; } </style><linearGradient id="linear-gradient" x1="409.61" y1="83.93" x2="67.48" y2="338.91" gradientUnits="userSpaceOnUse"><stop offset="0" stop-color="#ae95da"></stop><stop offset=".06" stop-color="#b193d3"></stop><stop offset=".16" stop-color="#ba90c0"></stop><stop offset=".26" stop-color="#c98aa2"></stop><stop offset=".38" stop-color="#de8377"></stop><stop offset=".51" stop-color="#f97942"></stop><stop offset=".52" stop-color="#fb793f"></stop><stop offset=".64" stop-color="#e0527c"></stop><stop offset=".76" stop-color="#c92fb4"></stop><stop offset=".87" stop-color="#b715dc"></stop><stop offset=".95" stop-color="#ac05f5"></stop><stop offset="1" stop-color="#a900ff"></stop></linearGradient></defs><polygon class="cls-1" points="358.2 133.2 358.2 61.49 53.17 61.49 53.17 366.51 179.03 366.51 179.03 275.47 266.37 275.47 266.37 146.63 155.46 146.63 155.46 184.72 228.28 184.72 228.28 237.38 140.94 237.38 140.94 328.42 91.26 328.42 91.26 99.58 320.11 99.58 320.11 143.26 319.04 199.73 408.74 148.04 408.74 212.84 408.74 213.57 408.74 278.36 319.3 226.82 320.11 299.03 320.11 328.42 228.44 328.42 228.44 366.51 358.2 366.51 358.2 298.93 358.14 293.16 446.83 344.27 446.83 213.57 446.83 212.84 446.83 82.13 358.2 133.2"></polygon></svg> 